<svg width="24" height="24" viewBox="0 0 24 24" fill="none" xmlns="http://www.w3.org/2000/svg">
<path fill-rule="evenodd" clip-rule="evenodd" d="M21 7.125C21 6.03098 20.5654 4.98177 19.7918 4.20818C19.0182 3.4346 17.969 3 16.875 3H12.375C11.281 3 10.2318 3.4346 9.45819 4.20818C8.6846 4.98177 8.25 6.03098 8.25 7.125V7.875C8.25 8.17337 8.36853 8.45952 8.57951 8.6705C8.79048 8.88147 9.07663 9 9.375 9C9.67337 9 9.95952 8.88147 10.1705 8.6705C10.3815 8.45952 10.5 8.17337 10.5 7.875V7.125C10.5 6.09 11.34 5.25 12.375 5.25H16.875C17.91 5.25 18.75 6.09 18.75 7.125V16.875C18.75 17.91 17.91 18.75 16.875 18.75H12.375C11.34 18.75 10.5 17.91 10.5 16.875V16.125C10.5 15.8266 10.3815 15.5405 10.1705 15.3295C9.95952 15.1185 9.67337 15 9.375 15C9.07663 15 8.79048 15.1185 8.57951 15.3295C8.36853 15.5405 8.25 15.8266 8.25 16.125V16.875C8.25 17.969 8.6846 19.0182 9.45819 19.7918C10.2318 20.5654 11.281 21 12.375 21H16.875C17.969 21 19.0182 20.5654 19.7918 19.7918C20.5654 19.0182 21 17.969 21 16.875V7.125ZM6.795 7.83C6.58406 7.61932 6.29813 7.50099 6 7.50099C5.70188 7.50099 5.41594 7.61932 5.205 7.83L1.83 11.205C1.61933 11.4159 1.50099 11.7019 1.50099 12C1.50099 12.2981 1.61933 12.5841 1.83 12.795L5.205 16.17C5.308 16.2805 5.4322 16.3692 5.57019 16.4307C5.70819 16.4922 5.85716 16.5252 6.00822 16.5279C6.15927 16.5306 6.30932 16.5028 6.4494 16.4462C6.58948 16.3896 6.71673 16.3054 6.82356 16.1986C6.93039 16.0917 7.0146 15.9645 7.07119 15.8244C7.12777 15.6843 7.15555 15.5343 7.15289 15.3832C7.15022 15.2322 7.11716 15.0832 7.05567 14.9452C6.99419 14.8072 6.90553 14.683 6.795 14.58L5.34 13.125H16.125C16.4234 13.125 16.7095 13.0065 16.9205 12.7955C17.1315 12.5845 17.25 12.2984 17.25 12C17.25 11.7016 17.1315 11.4155 16.9205 11.2045C16.7095 10.9935 16.4234 10.875 16.125 10.875H5.34L6.795 9.42C7.00568 9.20906 7.12401 8.92313 7.12401 8.625C7.12401 8.32687 7.00568 8.04094 6.795 7.83Z" fill="#020617"/>
</svg>
